<?xml version="1.0" encoding="UTF-8" standalone="no"?>
<!-- Created with Inkscape (http://www.inkscape.org/) -->

<svg
   width="100mm"
   height="100mm"
   viewBox="0 0 100 100"
   version="1.1"
   id="svg5"
   inkscape:version="1.3.2 (091e20e, 2023-11-25, custom)"
   sodipodi:docname="no_order_number.svg"
   xml:space="preserve"
   inkscape:export-filename="..\order_number.png"
   inkscape:export-xdpi="12.191999"
   inkscape:export-ydpi="12.191999"
   xmlns:inkscape="http://www.inkscape.org/namespaces/inkscape"
   xmlns:sodipodi="http://sodipodi.sourceforge.net/DTD/sodipodi-0.dtd"
   xmlns:xlink="http://www.w3.org/1999/xlink"
   xmlns="http://www.w3.org/2000/svg"
   xmlns:svg="http://www.w3.org/2000/svg"><sodipodi:namedview
     id="namedview7"
     pagecolor="#ffffff"
     bordercolor="#000000"
     borderopacity="0.25"
     inkscape:showpageshadow="2"
     inkscape:pageopacity="0.0"
     inkscape:pagecheckerboard="0"
     inkscape:deskcolor="#d1d1d1"
     inkscape:document-units="mm"
     showgrid="false"
     inkscape:zoom="1"
     inkscape:cx="177"
     inkscape:cy="259.5"
     inkscape:window-width="2560"
     inkscape:window-height="1369"
     inkscape:window-x="2552"
     inkscape:window-y="-8"
     inkscape:window-maximized="1"
     inkscape:current-layer="layer1"
     inkscape:export-bgcolor="#ffffffff" /><defs
     id="defs2"><linearGradient
       gradientUnits="userSpaceOnUse"
       y2="-2.623"
       x2="0"
       y1="986.67"
       id="linearGradient2"><stop
         stop-color="#ffce3b"
         id="stop1" /><stop
         offset="1"
         stop-color="#ffd762"
         id="stop2" /></linearGradient><linearGradient
       id="0"
       gradientUnits="userSpaceOnUse"
       y1="986.67"
       x2="0"
       y2="-2.623"><stop
         stop-color="#ffce3b"
         id="stop3" /><stop
         offset="1"
         stop-color="#fef4ab"
         id="stop4" /></linearGradient><linearGradient
       gradientUnits="userSpaceOnUse"
       x2="1"
       x1="0"
       xlink:href="#0"
       id="linearGradient4" /></defs><g
     inkscape:label="Ebene 1"
     inkscape:groupmode="layer"
     id="layer1"><text
       xml:space="preserve"
       style="font-size:13.1888px;font-family:Arial;-inkscape-font-specification:'Arial, Normal';letter-spacing:0px;fill:#0700f1;fill-opacity:1;stroke-width:1.75795;stroke-linecap:round;stroke-linejoin:round;stroke-miterlimit:0;paint-order:fill markers stroke"
       x="3.4392288"
       y="33.859318"
       id="text1"><tspan
         sodipodi:role="line"
         id="tspan1"
         style="fill:#0700f1;fill-opacity:1;stroke-width:1.75795"
         x="3.4392288"
         y="33.859318">JLCJLCJLCJLC</tspan></text><g
       transform="matrix(5.721625,0,0,5.721625,-12.662149,-5897.6605)"
       id="g5"><path
         transform="translate(7,1037.36)"
         d="M 4,0 C 1.784,0 0,1.784 0,4 0,6.216 1.784,8 4,8 6.216,8 8,6.216 8,4 8,1.784 6.216,0 4,0"
         fill="#da4453"
         id="path4" /><path
         d="m 11.906,1041.46 0.99,-0.99 c 0.063,-0.062 0.094,-0.139 0.094,-0.229 0,-0.09 -0.031,-0.166 -0.094,-0.229 l -0.458,-0.458 c -0.063,-0.062 -0.139,-0.094 -0.229,-0.094 -0.09,0 -0.166,0.031 -0.229,0.094 l -0.99,0.99 -0.99,-0.99 c -0.063,-0.062 -0.139,-0.094 -0.229,-0.094 -0.09,0 -0.166,0.031 -0.229,0.094 l -0.458,0.458 c -0.063,0.063 -0.094,0.139 -0.094,0.229 0,0.09 0.031,0.166 0.094,0.229 l 0.99,0.99 -0.99,0.99 c -0.063,0.062 -0.094,0.139 -0.094,0.229 0,0.09 0.031,0.166 0.094,0.229 l 0.458,0.458 c 0.063,0.063 0.139,0.094 0.229,0.094 0.09,0 0.166,-0.031 0.229,-0.094 l 0.99,-0.99 0.99,0.99 c 0.063,0.063 0.139,0.094 0.229,0.094 0.09,0 0.166,-0.031 0.229,-0.094 l 0.458,-0.458 c 0.063,-0.062 0.094,-0.139 0.094,-0.229 0,-0.09 -0.031,-0.166 -0.094,-0.229 l -0.99,-0.99"
         fill="#ffffff"
         id="path5" /></g></g></svg>
